<svg width="311" height="107" viewBox="0 0 311 107" fill="none" xmlns="http://www.w3.org/2000/svg">
<path d="M20.804 25.912C21.5133 23.84 22.1853 22.1133 22.82 20.732C23.4547 19.3507 24.0893 18.2587 24.724 17.456C25.3587 16.6347 26.012 16.0467 26.684 15.692C27.3747 15.3373 28.112 15.16 28.896 15.16C29.6987 15.16 30.2773 15.3467 30.632 15.72C31.0053 16.0933 31.2013 16.6067 31.22 17.26C31.2387 17.8947 31.1267 18.604 30.884 19.388L28.14 27.62C28.0467 27.8813 27.9813 28.1333 27.944 28.376C27.9253 28.6 27.9627 28.7867 28.056 28.936C28.1493 29.0667 28.308 29.132 28.532 29.132C28.812 29.132 29.1107 28.9733 29.428 28.656C29.7453 28.3387 30.0813 27.6947 30.436 26.724L30.884 25.464H31.416L30.716 27.508C30.4547 28.292 30.1187 28.8893 29.708 29.3C29.2973 29.7107 28.8587 29.9907 28.392 30.14C27.944 30.308 27.5053 30.392 27.076 30.392C26.292 30.392 25.704 30.224 25.312 29.888C24.9387 29.552 24.7427 29.0573 24.724 28.404C24.724 27.7507 24.864 26.9853 25.144 26.108L27.72 18.408C27.832 18.072 27.9067 17.7547 27.944 17.456C28 17.1387 27.9813 16.8867 27.888 16.7C27.8133 16.4947 27.6173 16.392 27.3 16.392C26.796 16.392 26.2453 16.7 25.648 17.316C25.0507 17.932 24.4347 18.8187 23.8 19.976C23.184 21.1147 22.568 22.496 21.952 24.12C21.336 25.744 20.748 27.5827 20.188 29.636L20.804 25.912ZM22.596 8.412C23.268 8.356 23.9027 8.28133 24.5 8.188C25.116 8.076 25.6853 7.92667 26.208 7.74L20.104 30C20.104 30 19.9827 30 19.74 30C19.516 30 19.2267 30 18.872 30C18.536 30 18.2 30 17.864 30C17.528 30 17.2387 30 16.996 30C16.772 30 16.66 30 16.66 30L22.596 8.412ZM11.368 10.708C11.368 10.708 11.4893 10.7173 11.732 10.736C11.9747 10.7547 12.2827 10.7827 12.656 10.82C13.0293 10.8573 13.4027 10.904 13.776 10.96C14.1493 10.9973 14.4573 11.0347 14.7 11.072C14.9427 11.0907 15.064 11.1 15.064 11.1L10.92 26.752C10.7333 27.4427 10.668 27.9747 10.724 28.348C10.78 28.7213 10.9853 28.992 11.34 29.16C11.6947 29.3093 12.2547 29.4027 13.02 29.44L12.908 30C12.348 29.9627 11.6293 29.944 10.752 29.944C9.89333 29.9253 8.99733 29.916 8.064 29.916C7.14933 29.916 6.272 29.9253 5.432 29.944C4.592 29.944 3.92 29.9627 3.416 30L3.528 29.44C4.312 29.4027 4.928 29.3093 5.376 29.16C5.824 28.992 6.16933 28.7213 6.412 28.348C6.67333 27.956 6.89733 27.424 7.084 26.752L11.368 10.708ZM22.96 10.708C22.3067 11.0813 21.5973 11.3427 20.832 11.492C20.0853 11.6227 19.2267 11.688 18.256 11.688C17.4347 11.688 16.5853 11.6413 15.708 11.548C14.8493 11.436 13.9813 11.3147 13.104 11.184C12.2267 11.0533 11.3587 10.9413 10.5 10.848C9.66 10.736 8.85733 10.68 8.092 10.68C7.476 10.68 6.86933 10.7173 6.272 10.792C5.69333 10.848 5.24533 10.9693 4.928 11.156C5.30133 11.3053 5.60933 11.5667 5.852 11.94C6.09467 12.3133 6.216 12.7427 6.216 13.228C6.216 13.7693 6.03867 14.2547 5.684 14.684C5.348 15.0947 4.88133 15.3 4.284 15.3C3.724 15.3 3.29467 15.1133 2.996 14.74C2.69733 14.3667 2.548 13.9187 2.548 13.396C2.548 12.9667 2.66 12.5187 2.884 12.052C3.12667 11.5667 3.584 11.156 4.256 10.82C4.68533 10.6147 5.14267 10.4653 5.628 10.372C6.132 10.2787 6.59867 10.2227 7.028 10.204C7.45733 10.1853 7.784 10.176 8.008 10.176C9.27733 10.176 10.4907 10.26 11.648 10.428C12.824 10.5773 13.972 10.736 15.092 10.904C16.212 11.0533 17.3413 11.128 18.48 11.128C19.4693 11.128 20.272 11.0627 20.888 10.932C21.5227 10.7827 22.1667 10.54 22.82 10.204L22.96 10.708ZM35.9231 23.84C36.8005 23.504 37.6031 23.1587 38.3311 22.804C39.0778 22.4307 39.7031 22.0387 40.2071 21.628C40.8978 21.012 41.4578 20.2933 41.8871 19.472C42.3165 18.632 42.5311 17.7173 42.5311 16.728C42.5311 16.2987 42.4938 16.0187 42.4191 15.888C42.3445 15.7573 42.2325 15.692 42.0831 15.692C41.6538 15.692 41.1871 15.8973 40.6831 16.308C40.1791 16.7187 39.6845 17.288 39.1991 18.016C38.7138 18.7253 38.2658 19.528 37.8551 20.424C37.4631 21.32 37.1458 22.2627 36.9031 23.252C36.6605 24.2413 36.5391 25.2213 36.5391 26.192C36.5391 27.1813 36.7258 27.8813 37.0991 28.292C37.4911 28.684 38.0045 28.88 38.6391 28.88C39.1805 28.88 39.8245 28.7027 40.5711 28.348C41.3178 27.9933 42.0551 27.3493 42.7831 26.416L43.2311 26.64C42.8578 27.256 42.3631 27.8533 41.7471 28.432C41.1311 29.0107 40.4218 29.4867 39.6191 29.86C38.8351 30.2147 37.9671 30.392 37.0151 30.392C36.2311 30.392 35.5218 30.2427 34.8871 29.944C34.2525 29.6453 33.7578 29.2067 33.4031 28.628C33.0485 28.0307 32.8711 27.3027 32.8711 26.444C32.8711 25.5293 33.0298 24.5587 33.3471 23.532C33.6645 22.4867 34.1125 21.4693 34.6911 20.48C35.2885 19.4907 35.9885 18.5947 36.7911 17.792C37.6125 16.9893 38.5178 16.3547 39.5071 15.888C40.4965 15.4027 41.5605 15.16 42.6991 15.16C43.4458 15.16 44.0711 15.3373 44.5751 15.692C45.0791 16.028 45.3311 16.5507 45.3311 17.26C45.3311 17.988 45.1258 18.6693 44.7151 19.304C44.3045 19.9387 43.7445 20.5173 43.0351 21.04C42.3445 21.5627 41.5791 22.0293 40.7391 22.44C39.9178 22.8507 39.0871 23.2053 38.2471 23.504C37.4071 23.8027 36.6231 24.0453 35.8951 24.232L35.9231 23.84Z" fill="#FFAF1D"/>
<path d="M45.344 34.184V35.224C44.2347 35.2587 43.3853 35.3973 42.796 35.64C42.2067 35.848 41.808 36.264 41.6 36.888C41.4267 37.4773 41.34 38.4133 41.34 39.696V65.488C41.34 66.736 41.444 67.672 41.652 68.296C41.86 68.92 42.2413 69.336 42.796 69.544C43.3853 69.752 44.2347 69.8907 45.344 69.96V71C44.4427 70.9307 43.2987 70.896 41.912 70.896C40.5253 70.8613 39.1213 70.844 37.7 70.844C36.14 70.844 34.6667 70.8613 33.28 70.896C31.928 70.896 30.836 70.9307 30.004 71V69.96C31.1827 69.8907 32.0667 69.752 32.656 69.544C33.28 69.336 33.696 68.92 33.904 68.296C34.112 67.672 34.216 66.736 34.216 65.488V37.2L34.58 37.252L21.684 71.156H20.852L7.124 37.512V63.304C7.124 64.968 7.228 66.268 7.436 67.204C7.644 68.1053 8.09467 68.764 8.788 69.18C9.516 69.5613 10.608 69.8213 12.064 69.96V71C11.4053 70.9307 10.556 70.896 9.516 70.896C8.476 70.8613 7.488 70.844 6.552 70.844C5.72 70.844 4.87067 70.8613 4.004 70.896C3.172 70.896 2.47867 70.9307 1.924 71V69.96C3.068 69.8213 3.91733 69.5613 4.472 69.18C5.06133 68.7987 5.44267 68.1747 5.616 67.308C5.824 66.4413 5.928 65.2453 5.928 63.72V39.696C5.928 38.4133 5.824 37.4773 5.616 36.888C5.44267 36.264 5.06133 35.848 4.472 35.64C3.91733 35.3973 3.068 35.2587 1.924 35.224V34.184C2.47867 34.2187 3.172 34.2533 4.004 34.288C4.87067 34.3227 5.72 34.34 6.552 34.34C7.83467 34.34 9.08267 34.3227 10.296 34.288C11.5093 34.2533 12.584 34.2187 13.52 34.184L24.7 62.108L23.556 63.044L34.424 34.34C34.944 34.34 35.4813 34.34 36.036 34.34C36.6253 34.34 37.18 34.34 37.7 34.34C39.1213 34.34 40.5253 34.3227 41.912 34.288C43.2987 34.2533 44.4427 34.2187 45.344 34.184ZM60.7685 43.388C63.8192 43.388 66.2112 44.3067 67.9445 46.144C69.6778 47.9813 70.5445 50.9107 70.5445 54.932H53.0205L52.9685 53.944H64.5125C64.5818 52.2453 64.4778 50.6853 64.2005 49.264C63.9232 47.808 63.4725 46.6467 62.8485 45.78C62.2592 44.9133 61.4792 44.48 60.5085 44.48C59.1912 44.48 58.0472 45.26 57.0765 46.82C56.1058 48.3453 55.4992 50.8587 55.2565 54.36L55.4645 54.672C55.3952 55.1227 55.3432 55.608 55.3085 56.128C55.3085 56.648 55.3085 57.168 55.3085 57.688C55.3085 60.08 55.6552 62.056 56.3485 63.616C57.0418 65.176 57.9432 66.32 59.0525 67.048C60.1618 67.776 61.3058 68.14 62.4845 68.14C63.2818 68.14 64.0965 68.0187 64.9285 67.776C65.7605 67.5333 66.5752 67.0827 67.3725 66.424C68.1698 65.7653 68.8978 64.8293 69.5565 63.616L70.5445 64.032C70.1632 65.2453 69.5218 66.4587 68.6205 67.672C67.7538 68.8507 66.6272 69.8213 65.2405 70.584C63.8538 71.3467 62.2245 71.728 60.3525 71.728C57.9952 71.728 55.9152 71.208 54.1125 70.168C52.3098 69.128 50.9058 67.5853 49.9005 65.54C48.8952 63.46 48.3925 60.9293 48.3925 57.948C48.3925 54.7933 48.9125 52.1413 49.9525 49.992C51.0272 47.8427 52.5005 46.2133 54.3725 45.104C56.2445 43.96 58.3765 43.388 60.7685 43.388ZM83.7464 35.588V44.168H90.4024V45.208H83.7464V65.904C83.7464 67.152 83.9717 68.036 84.4224 68.556C84.8731 69.076 85.5144 69.336 86.3464 69.336C87.1437 69.336 87.8717 69.0413 88.5304 68.452C89.1891 67.828 89.7784 66.8053 90.2984 65.384L91.2344 65.8C90.7144 67.4987 89.8997 68.92 88.7904 70.064C87.7157 71.1733 86.1904 71.728 84.2144 71.728C83.0357 71.728 82.0304 71.572 81.1984 71.26C80.4011 70.9827 79.7077 70.5667 79.1184 70.012C78.3557 69.2147 77.8357 68.2613 77.5584 67.152C77.3157 66.0427 77.1944 64.5693 77.1944 62.732V45.208H72.6184V44.168H77.1944V36.94C78.4424 36.9053 79.6037 36.784 80.6784 36.576C81.7531 36.368 82.7757 36.0387 83.7464 35.588ZM109.464 43.388C110.538 43.388 111.422 43.6133 112.116 44.064C112.844 44.5147 113.381 45.0867 113.728 45.78C114.074 46.4733 114.248 47.2013 114.248 47.964C114.248 49.108 113.901 50.0613 113.208 50.824C112.549 51.5867 111.665 51.968 110.556 51.968C109.516 51.968 108.666 51.6907 108.008 51.136C107.349 50.5813 107.02 49.8187 107.02 48.848C107.02 47.9813 107.228 47.2533 107.644 46.664C108.094 46.0747 108.597 45.6067 109.152 45.26C108.77 45.052 108.337 44.9827 107.852 45.052C107.02 45.1213 106.257 45.416 105.564 45.936C104.87 46.456 104.281 47.0973 103.796 47.86C103.31 48.6227 102.929 49.4373 102.652 50.304C102.409 51.1707 102.288 52.0027 102.288 52.8V65.644C102.288 67.3427 102.721 68.4867 103.588 69.076C104.454 69.6307 105.72 69.908 107.384 69.908V71C106.586 70.9653 105.425 70.9307 103.9 70.896C102.409 70.8267 100.849 70.792 99.2197 70.792C97.8677 70.792 96.5157 70.8267 95.1637 70.896C93.8463 70.9307 92.8583 70.9653 92.1997 71V69.908C93.4823 69.908 94.3837 69.648 94.9037 69.128C95.4583 68.608 95.7357 67.62 95.7357 66.164V49.784C95.7357 48.224 95.4757 47.08 94.9557 46.352C94.4703 45.5893 93.5517 45.208 92.1997 45.208V44.116C93.309 44.22 94.3837 44.272 95.4237 44.272C96.7063 44.272 97.9197 44.22 99.0637 44.116C100.242 43.9773 101.317 43.7867 102.288 43.544V48.952C102.704 47.9813 103.241 47.08 103.9 46.248C104.593 45.416 105.408 44.74 106.344 44.22C107.314 43.6653 108.354 43.388 109.464 43.388ZM128.462 43.388C130.854 43.388 132.969 43.8733 134.806 44.844C136.678 45.78 138.152 47.288 139.226 49.368C140.336 51.448 140.89 54.1867 140.89 57.584C140.89 60.9813 140.336 63.72 139.226 65.8C138.152 67.88 136.678 69.388 134.806 70.324C132.969 71.26 130.854 71.728 128.462 71.728C126.07 71.728 123.938 71.26 122.066 70.324C120.194 69.388 118.721 67.88 117.646 65.8C116.572 63.72 116.034 60.9813 116.034 57.584C116.034 54.1867 116.572 51.448 117.646 49.368C118.721 47.288 120.194 45.78 122.066 44.844C123.938 43.8733 126.07 43.388 128.462 43.388ZM128.462 44.428C126.833 44.428 125.498 45.468 124.458 47.548C123.453 49.5933 122.95 52.9387 122.95 57.584C122.95 62.2293 123.453 65.5747 124.458 67.62C125.498 69.6653 126.833 70.688 128.462 70.688C130.057 70.688 131.374 69.6653 132.414 67.62C133.454 65.5747 133.974 62.2293 133.974 57.584C133.974 52.9387 133.454 49.5933 132.414 47.548C131.374 45.468 130.057 44.428 128.462 44.428ZM154.077 43.596V75.368C154.077 76.928 154.493 77.968 155.325 78.488C156.192 79.0427 157.371 79.32 158.861 79.32V80.412C158.029 80.3773 156.851 80.3253 155.325 80.256C153.835 80.2213 152.24 80.204 150.541 80.204C149.363 80.204 148.184 80.2213 147.005 80.256C145.827 80.3253 144.925 80.3773 144.301 80.412V79.32C145.48 79.32 146.312 79.0773 146.797 78.592C147.283 78.1067 147.525 77.2053 147.525 75.888V49.836C147.525 48.276 147.283 47.132 146.797 46.404C146.312 45.6413 145.376 45.26 143.989 45.26V44.168C145.099 44.272 146.173 44.324 147.213 44.324C148.531 44.324 149.761 44.272 150.905 44.168C152.049 44.0293 153.107 43.8387 154.077 43.596ZM162.241 43.388C164.044 43.388 165.656 43.8907 167.077 44.896C168.499 45.8667 169.608 47.3053 170.405 49.212C171.237 51.1187 171.653 53.5107 171.653 56.388C171.653 58.676 171.393 60.7733 170.873 62.68C170.353 64.552 169.573 66.164 168.533 67.516C167.528 68.868 166.28 69.908 164.789 70.636C163.299 71.364 161.6 71.728 159.693 71.728C158.237 71.728 156.937 71.4507 155.793 70.896C154.649 70.3413 153.817 69.596 153.297 68.66L153.817 67.932C154.233 68.66 154.805 69.2493 155.533 69.7C156.261 70.1507 157.128 70.376 158.133 70.376C159.797 70.376 161.115 69.8387 162.085 68.764C163.056 67.6547 163.732 66.112 164.113 64.136C164.529 62.16 164.737 59.872 164.737 57.272C164.737 54.3947 164.547 52.0893 164.165 50.356C163.784 48.6227 163.212 47.3747 162.449 46.612C161.687 45.8147 160.785 45.416 159.745 45.416C158.324 45.416 157.041 45.988 155.897 47.132C154.788 48.2413 154.112 49.8707 153.869 52.02L153.505 50.564C154.06 48.276 155.117 46.508 156.677 45.26C158.237 44.012 160.092 43.388 162.241 43.388ZM188.333 43.388C190.725 43.388 192.84 43.8733 194.677 44.844C196.549 45.78 198.023 47.288 199.097 49.368C200.207 51.448 200.761 54.1867 200.761 57.584C200.761 60.9813 200.207 63.72 199.097 65.8C198.023 67.88 196.549 69.388 194.677 70.324C192.84 71.26 190.725 71.728 188.333 71.728C185.941 71.728 183.809 71.26 181.937 70.324C180.065 69.388 178.592 67.88 177.517 65.8C176.443 63.72 175.905 60.9813 175.905 57.584C175.905 54.1867 176.443 51.448 177.517 49.368C178.592 47.288 180.065 45.78 181.937 44.844C183.809 43.8733 185.941 43.388 188.333 43.388ZM188.333 44.428C186.704 44.428 185.369 45.468 184.329 47.548C183.324 49.5933 182.821 52.9387 182.821 57.584C182.821 62.2293 183.324 65.5747 184.329 67.62C185.369 69.6653 186.704 70.688 188.333 70.688C189.928 70.688 191.245 69.6653 192.285 67.62C193.325 65.5747 193.845 62.2293 193.845 57.584C193.845 52.9387 193.325 49.5933 192.285 47.548C191.245 45.468 189.928 44.428 188.333 44.428ZM213.441 30.284V66.164C213.441 67.62 213.701 68.608 214.221 69.128C214.775 69.648 215.694 69.908 216.977 69.908V71C216.353 70.9653 215.399 70.9307 214.117 70.896C212.869 70.8267 211.586 70.792 210.269 70.792C208.986 70.792 207.669 70.8267 206.317 70.896C204.999 70.9307 204.011 70.9653 203.353 71V69.908C204.635 69.908 205.537 69.648 206.057 69.128C206.611 68.608 206.889 67.62 206.889 66.164V36.524C206.889 34.964 206.646 33.82 206.161 33.092C205.675 32.3293 204.739 31.948 203.353 31.948V30.856C204.462 30.96 205.537 31.012 206.577 31.012C207.894 31.012 209.125 30.96 210.269 30.856C211.413 30.7173 212.47 30.5267 213.441 30.284ZM225.855 30.856C227.103 30.856 228.125 31.2027 228.923 31.896C229.72 32.5893 230.119 33.508 230.119 34.652C230.119 35.796 229.72 36.7147 228.923 37.408C228.125 38.1013 227.103 38.448 225.855 38.448C224.607 38.448 223.584 38.1013 222.787 37.408C221.989 36.7147 221.591 35.796 221.591 34.652C221.591 33.508 221.989 32.5893 222.787 31.896C223.584 31.2027 224.607 30.856 225.855 30.856ZM229.495 43.544V66.164C229.495 67.62 229.755 68.608 230.275 69.128C230.829 69.648 231.748 69.908 233.031 69.908V71C232.407 70.9653 231.453 70.9307 230.171 70.896C228.888 70.8267 227.588 70.792 226.271 70.792C224.988 70.792 223.688 70.8267 222.371 70.896C221.053 70.9307 220.065 70.9653 219.407 71V69.908C220.689 69.908 221.591 69.648 222.111 69.128C222.665 68.608 222.943 67.62 222.943 66.164V49.836C222.943 48.2413 222.683 47.08 222.163 46.352C221.677 45.5893 220.759 45.208 219.407 45.208V44.116C220.516 44.22 221.591 44.272 222.631 44.272C223.913 44.272 225.127 44.22 226.271 44.116C227.449 43.9773 228.524 43.7867 229.495 43.544ZM245.231 35.588V44.168H251.887V45.208H245.231V65.904C245.231 67.152 245.456 68.036 245.907 68.556C246.357 69.076 246.999 69.336 247.831 69.336C248.628 69.336 249.356 69.0413 250.015 68.452C250.673 67.828 251.263 66.8053 251.783 65.384L252.719 65.8C252.199 67.4987 251.384 68.92 250.275 70.064C249.2 71.1733 247.675 71.728 245.699 71.728C244.52 71.728 243.515 71.572 242.683 71.26C241.885 70.9827 241.192 70.5667 240.603 70.012C239.84 69.2147 239.32 68.2613 239.043 67.152C238.8 66.0427 238.679 64.5693 238.679 62.732V45.208H234.103V44.168H238.679V36.94C239.927 36.9053 241.088 36.784 242.163 36.576C243.237 36.368 244.26 36.0387 245.231 35.588ZM260.912 71.364C259.421 71.364 258.156 71.0867 257.116 70.532C256.076 69.9427 255.296 69.1627 254.776 68.192C254.256 67.1867 253.996 66.0773 253.996 64.864C253.996 63.3733 254.343 62.16 255.036 61.224C255.729 60.2533 256.613 59.4907 257.688 58.936C258.797 58.3467 259.959 57.8613 261.172 57.48C262.385 57.064 263.529 56.6827 264.604 56.336C265.679 55.9547 266.563 55.5213 267.256 55.036C267.949 54.5507 268.296 53.9093 268.296 53.112V49.316C268.296 48.2067 268.123 47.3053 267.776 46.612C267.464 45.884 266.979 45.3467 266.32 45C265.696 44.6187 264.899 44.428 263.928 44.428C263.2 44.428 262.437 44.532 261.64 44.74C260.843 44.948 260.184 45.3467 259.664 45.936C260.565 46.1787 261.259 46.6293 261.744 47.288C262.264 47.9467 262.524 48.744 262.524 49.68C262.524 50.7547 262.16 51.604 261.432 52.228C260.739 52.8173 259.855 53.112 258.78 53.112C257.636 53.112 256.769 52.748 256.18 52.02C255.591 51.292 255.296 50.4427 255.296 49.472C255.296 48.5013 255.539 47.704 256.024 47.08C256.509 46.4213 257.185 45.832 258.052 45.312C258.919 44.7227 260.028 44.2547 261.38 43.908C262.732 43.5613 264.205 43.388 265.8 43.388C267.325 43.388 268.677 43.5613 269.856 43.908C271.035 44.22 272.04 44.792 272.872 45.624C273.704 46.4213 274.241 47.4093 274.484 48.588C274.727 49.7667 274.848 51.2053 274.848 52.904V67.152C274.848 68.0187 274.952 68.6427 275.16 69.024C275.368 69.3707 275.697 69.544 276.148 69.544C276.495 69.544 276.824 69.4573 277.136 69.284C277.448 69.1107 277.795 68.868 278.176 68.556L278.748 69.44C277.985 70.0293 277.188 70.4973 276.356 70.844C275.524 71.1907 274.519 71.364 273.34 71.364C272.127 71.364 271.156 71.1907 270.428 70.844C269.735 70.4973 269.215 69.9947 268.868 69.336C268.556 68.6773 268.383 67.8973 268.348 66.996C267.516 68.3827 266.493 69.4573 265.28 70.22C264.067 70.9827 262.611 71.364 260.912 71.364ZM264.032 68.452C264.864 68.452 265.627 68.2267 266.32 67.776C267.048 67.3253 267.707 66.6493 268.296 65.748V55.244C267.949 55.764 267.447 56.232 266.788 56.648C266.164 57.064 265.488 57.48 264.76 57.896C264.032 58.312 263.339 58.7973 262.68 59.352C262.056 59.872 261.519 60.5307 261.068 61.328C260.652 62.0907 260.444 63.0787 260.444 64.292C260.444 65.644 260.773 66.684 261.432 67.412C262.091 68.1053 262.957 68.452 264.032 68.452ZM298.911 43.388C300.367 43.388 301.528 43.5787 302.395 43.96C303.296 44.3413 304.024 44.8267 304.579 45.416C305.203 46.0747 305.636 46.924 305.879 47.964C306.156 49.004 306.295 50.408 306.295 52.176V66.164C306.295 67.62 306.555 68.608 307.075 69.128C307.629 69.648 308.548 69.908 309.831 69.908V71C309.207 70.9653 308.236 70.9307 306.919 70.896C305.636 70.8267 304.388 70.792 303.175 70.792C301.892 70.792 300.644 70.8267 299.431 70.896C298.217 70.9307 297.316 70.9653 296.727 71V69.908C297.836 69.908 298.616 69.648 299.067 69.128C299.517 68.608 299.743 67.62 299.743 66.164V50.408C299.743 49.472 299.656 48.64 299.483 47.912C299.309 47.1493 298.963 46.56 298.443 46.144C297.923 45.6933 297.177 45.468 296.207 45.468C295.063 45.468 294.04 45.78 293.139 46.404C292.272 47.028 291.579 47.8947 291.059 49.004C290.573 50.0787 290.331 51.292 290.331 52.644V66.164C290.331 67.62 290.556 68.608 291.007 69.128C291.457 69.648 292.237 69.908 293.347 69.908V71C292.757 70.9653 291.873 70.9307 290.695 70.896C289.516 70.8267 288.32 70.792 287.107 70.792C285.824 70.792 284.524 70.8267 283.207 70.896C281.889 70.9307 280.901 70.9653 280.243 71V69.908C281.525 69.908 282.427 69.648 282.947 69.128C283.501 68.608 283.779 67.62 283.779 66.164V49.784C283.779 48.224 283.519 47.08 282.999 46.352C282.513 45.5893 281.595 45.208 280.243 45.208V44.116C281.352 44.22 282.427 44.272 283.467 44.272C284.749 44.272 285.963 44.22 287.107 44.116C288.285 43.9773 289.36 43.7867 290.331 43.544V48.744C291.197 46.768 292.393 45.3813 293.919 44.584C295.444 43.7867 297.108 43.388 298.911 43.388Z" fill="url(#paint0_linear_777_726)"/>
<path d="M248.432 87.2C248.301 88.1147 248.32 88.9827 248.488 89.804C248.656 90.6253 248.973 91.3627 249.44 92.016C249.907 92.6507 250.485 93.1547 251.176 93.528C251.885 93.9013 252.707 94.088 253.64 94.088C254.984 94.1067 256.188 93.8453 257.252 93.304C258.335 92.7627 259.296 92.1187 260.136 91.372L259.548 95.264C258.652 95.9173 257.691 96.4307 256.664 96.804C255.656 97.1587 254.499 97.336 253.192 97.336C251.773 97.336 250.504 97.0653 249.384 96.524C248.264 95.9827 247.34 95.2453 246.612 94.312C245.884 93.3787 245.371 92.296 245.072 91.064C244.773 89.832 244.717 88.544 244.904 87.2C245.128 85.7813 245.576 84.4653 246.248 83.252C246.92 82.02 247.769 80.9467 248.796 80.032C249.841 79.0987 251.008 78.3707 252.296 77.848C253.603 77.3253 254.984 77.064 256.44 77.064C257.691 77.0453 258.773 77.2133 259.688 77.568C260.603 77.9227 261.452 78.4453 262.236 79.136L261.62 83.056C261.023 82.216 260.276 81.544 259.38 81.04C258.503 80.536 257.448 80.284 256.216 80.284C255.264 80.284 254.359 80.4613 253.5 80.816C252.641 81.1707 251.857 81.6653 251.148 82.3C250.457 82.916 249.869 83.644 249.384 84.484C248.917 85.324 248.6 86.2293 248.432 87.2ZM266.601 75.16H269.625L265.845 97H262.905L266.601 75.16ZM273.468 91.96C273.412 92.4453 273.412 92.912 273.468 93.36C273.543 93.7893 273.711 94.144 273.972 94.424C274.252 94.6853 274.672 94.816 275.232 94.816C275.792 94.816 276.296 94.704 276.744 94.48C277.211 94.2373 277.594 93.9107 277.892 93.5C278.21 93.0707 278.415 92.5947 278.508 92.072L279.908 84.12H282.904L280.692 97H277.668L277.976 95.096C277.528 95.768 276.968 96.3 276.296 96.692C275.643 97.0653 274.878 97.252 274 97.252C273.03 97.252 272.255 97.028 271.676 96.58C271.098 96.132 270.706 95.5347 270.5 94.788C270.295 94.0227 270.258 93.192 270.388 92.296L271.816 84.12H274.84L273.468 91.96ZM291.005 75.16L287.253 97H284.257L288.009 75.16H291.005ZM298.733 90.56C298.565 91.8107 298.136 92.9493 297.445 93.976C296.755 95.0027 295.896 95.8147 294.869 96.412C293.843 96.9907 292.741 97.28 291.565 97.28C290.707 97.28 289.979 97.0933 289.381 96.72C288.784 96.3467 288.308 95.8427 287.953 95.208C287.617 94.5733 287.393 93.8547 287.281 93.052C287.169 92.2493 287.169 91.4187 287.281 90.56C287.412 89.6453 287.655 88.7867 288.009 87.984C288.364 87.1627 288.812 86.444 289.353 85.828C289.913 85.212 290.548 84.7267 291.257 84.372C291.985 84.0173 292.779 83.84 293.637 83.84C294.832 83.84 295.831 84.148 296.633 84.764C297.455 85.38 298.043 86.2013 298.397 87.228C298.771 88.236 298.883 89.3467 298.733 90.56ZM295.653 90.56C295.765 89.832 295.719 89.16 295.513 88.544C295.327 87.9093 294.991 87.4053 294.505 87.032C294.02 86.6587 293.413 86.472 292.685 86.472C292.2 86.472 291.715 86.5747 291.229 86.78C290.763 86.9853 290.324 87.2747 289.913 87.648C289.521 88.0213 289.185 88.46 288.905 88.964C288.644 89.4493 288.457 89.9813 288.345 90.56C288.289 91.1013 288.299 91.6147 288.373 92.1C288.467 92.5667 288.635 92.996 288.877 93.388C289.139 93.7613 289.447 94.06 289.801 94.284C290.175 94.508 290.613 94.62 291.117 94.62C291.864 94.6387 292.555 94.4707 293.189 94.116C293.824 93.7613 294.365 93.276 294.813 92.66C295.261 92.0253 295.541 91.3253 295.653 90.56ZM301.877 92.8C302.213 93.2107 302.568 93.584 302.941 93.92C303.333 94.2373 303.744 94.4893 304.173 94.676C304.603 94.8627 305.051 94.9467 305.517 94.928C306.059 94.928 306.497 94.788 306.833 94.508C307.188 94.2093 307.365 93.8453 307.365 93.416C307.365 93.024 307.244 92.6973 307.001 92.436C306.777 92.1747 306.469 91.9507 306.077 91.764C305.704 91.5773 305.312 91.4 304.901 91.232C304.379 91.0267 303.865 90.7747 303.361 90.476C302.876 90.1587 302.475 89.7667 302.157 89.3C301.84 88.8147 301.691 88.208 301.709 87.48C301.728 86.6587 301.952 85.9867 302.381 85.464C302.829 84.9227 303.389 84.5213 304.061 84.26C304.752 83.98 305.48 83.84 306.245 83.84C307.272 83.84 308.187 84.064 308.989 84.512C309.811 84.9413 310.483 85.4733 311.005 86.108L309.325 87.844C308.915 87.3587 308.439 86.9573 307.897 86.64C307.375 86.304 306.815 86.136 306.217 86.136C305.713 86.136 305.303 86.248 304.985 86.472C304.687 86.696 304.537 86.9853 304.537 87.34C304.519 87.6573 304.612 87.9373 304.817 88.18C305.041 88.404 305.34 88.6 305.713 88.768C306.087 88.936 306.479 89.1133 306.889 89.3C307.524 89.5613 308.103 89.86 308.625 90.196C309.148 90.5133 309.559 90.9147 309.857 91.4C310.175 91.8853 310.324 92.5013 310.305 93.248C310.287 94.0507 310.072 94.7693 309.661 95.404C309.251 96.02 308.691 96.5053 307.981 96.86C307.291 97.196 306.488 97.364 305.573 97.364C304.696 97.364 303.903 97.2333 303.193 96.972C302.484 96.692 301.859 96.3373 301.317 95.908C300.776 95.46 300.319 94.9933 299.945 94.508L301.877 92.8Z" fill="#FE177D"/>
<defs>
<linearGradient id="paint0_linear_777_726" x1="0" y1="49.5" x2="311" y2="49.5" gradientUnits="userSpaceOnUse">
<stop stop-color="#FFBA16"/>
<stop offset="1" stop-color="#FE008C"/>
</linearGradient>
</defs>
</svg>
